# xmcd CD database file
#
# Track frame offsets:
#	150
#	22966
#	48294
#	76095
#	98396
#	125841
#	161323
#	182039
#	201759
#	220640
#	241684
#	276533
#	298247
#	321976
#
# Disc length: 4627 seconds
#
# Revision: 1
# Processed by: cddbd v1.5.2PL0 Copyright (c) Steve Scherf et al.
# Submitted via: CDex 1.70beta2
#
DISCID=bd12110e
DTITLE=Lao Tizer - Diversify
DYEAR=2006
DGENRE=Jazz
TTITLE0=A Night In The City
TTITLE1=Uptown
TTITLE2=Diversify
TTITLE3=Flow
TTITLE4=A Hui Hou
TTITLE5=Olivas Adobe
TTITLE6=Summer Dayz
TTITLE7=Autumn Sky
TTITLE8=Improvisation
TTITLE9=Up A Notch
TTITLE10=Namaste
TTITLE11=November
TTITLE12=Rapture
TTITLE13=Ella's First Light
EXTD=YEAR: 2006
EXTT0=
EXTT1=
EXTT2=
EXTT3=
EXTT4=
EXTT5=
EXTT6=
EXTT7=
EXTT8=
EXTT9=
EXTT10=
EXTT11=
EXTT12=
EXTT13=
PLAYORDER=
